<svg viewBox="0 0 256 283" xmlns="http://www.w3.org/2000/svg" aria-hidden="true">
  <path
    fill="#EA4335"
    d="M119.553 134.916 1.06 259.061c2.696 9.556 9.658 17.33 18.861 21.059 9.203 3.729 19.612 2.996 28.201-1.988l133.327-75.934-61.896-67.282Z"
  />
  <path
    fill="#FBBC04"
    d="m239.371 113.814-57.657-33.023-64.898 56.951 65.163 64.279 57.216-32.669c10.331-5.41 16.806-16.107 16.806-27.769 0-11.662-6.475-22.36-16.806-27.769h.176Z"
  />
  <path
    fill="#4285F4"
    d="M1.06 23.487A31.61 31.61 0 0 0 0 31.61v219.327c.008 2.742.364 5.472 1.06 8.124L123.615 138.095 1.06 23.487Z"
  />
  <path
    fill="#34A853"
    d="m120.436 141.274 61.278-60.483L48.563 4.503A32.05 32.05 0 0 0 32.052 0C17.644-.028 4.978 9.534 1.06 23.399l119.376 117.875Z"
  />
</svg>
